<?xml version="1.0" encoding="UTF-8"?>
<svg xmlns="http://www.w3.org/2000/svg" xmlns:xlink="http://www.w3.org/1999/xlink" width="100pt" height="100pt" viewBox="0 0 100 100" version="1.1">
<g id="surface18177808">
<path style=" stroke:none;fill-rule:nonzero;fill:rgb(15.686275%,21.176471%,9.411765%);fill-opacity:1;" d="M 50 100 C 22.386719 100 0 77.613281 0 50 C 0 22.386719 22.386719 0 50 0 C 77.613281 0 100 22.386719 100 50 C 100 77.613281 77.613281 100 50 100 Z M 50 100 "/>
<path style=" stroke:none;fill-rule:nonzero;fill:rgb(94.509804%,76.862745%,5.882353%);fill-opacity:1;" d="M 61.242188 9.21875 C 54.242188 9.21875 45.203125 13.09375 36.523438 19.53125 C 35.726562 20.125 34.9375 20.71875 34.15625 21.351562 C 33.945312 21.523438 33.734375 21.703125 33.523438 21.875 C 32.710938 22.546875 31.90625 23.242188 31.101562 23.960938 C 30.828125 24.203125 30.554688 24.445312 30.28125 24.695312 C 29.296875 25.59375 28.320312 26.507812 27.359375 27.46875 L 27.351562 27.476562 L 27.335938 27.5 C 26.328125 28.507812 25.367188 29.523438 24.4375 30.554688 C 24.117188 30.898438 23.828125 31.242188 23.523438 31.59375 C 22.90625 32.28125 22.304688 32.976562 21.726562 33.679688 C 21.539062 33.898438 21.367188 34.125 21.1875 34.351562 C 9.5 49 6.515625 63.460938 11.75 68.6875 C 13.429688 70.375 15.929688 71.21875 19.195312 71.21875 C 22.507812 71.21875 26.28125 70.335938 30.25 68.75 C 31.25 61.335938 35.890625 51.6875 43.789062 43.789062 C 51.65625 35.921875 61.328125 31.273438 68.742188 30.226562 C 69.046875 29.445312 69.359375 28.664062 69.617188 27.890625 C 72.039062 20.640625 71.695312 14.757812 68.6875 11.75 C 67.007812 10.070312 64.5 9.21875 61.242188 9.21875 Z M 72.304688 9.875 C 78.726562 17.890625 74.09375 34.34375 61.601562 49.539062 C 59.820312 51.726562 57.898438 53.875 55.820312 55.945312 C 54.4375 57.335938 53.007812 58.632812 51.5625 59.890625 C 51.21875 60.1875 50.875 60.476562 50.53125 60.773438 C 50.070312 61.164062 49.601562 61.5625 49.125 61.9375 C 38.664062 70.4375 27.625 75.21875 19.195312 75.21875 C 15.414062 75.21875 12.164062 74.25 9.71875 72.226562 C 10.765625 74.742188 13.015625 79.054688 17.484375 83.53125 C 21.132812 87.179688 28.585938 92 38.773438 92 C 48.375 92 60.414062 87.71875 74 74.125 C 102.25 45.875 90.460938 24.640625 83.414062 17.59375 C 79.015625 13.195312 74.914062 10.96875 72.304688 9.875 Z M 56.414062 16.0625 C 57.234375 15.9375 58.007812 16.492188 58.132812 17.3125 C 58.265625 18.125 57.703125 18.898438 56.882812 19.03125 C 55.929688 19.179688 55.210938 20.03125 55.210938 21 C 55.210938 22.109375 56.101562 23 57.210938 23 C 58.195312 23 59.023438 22.296875 59.179688 21.328125 C 59.3125 20.507812 60.070312 19.945312 60.898438 20.09375 C 61.710938 20.21875 62.273438 20.992188 62.140625 21.8125 C 61.75 24.242188 59.671875 26 57.210938 26 C 55.703125 26 54.367188 25.320312 53.445312 24.265625 C 52.96875 25.523438 52.484375 26.890625 52.0625 28.179688 C 51.625 30.328125 49.570312 32 47.210938 32 C 45.796875 32 44.53125 31.414062 43.625 30.476562 C 43.03125 32.328125 42.46875 34.445312 42.117188 35.976562 C 41.703125 38.28125 39.632812 40 37.210938 40 C 35.84375 40 34.609375 39.453125 33.710938 38.5625 C 33.289062 40.414062 33.140625 42.25 33.03125 43.765625 C 32.96875 44.585938 32.90625 45.320312 32.820312 45.921875 C 32.476562 48.34375 30.351562 50.171875 27.875 50.171875 C 27.078125 50.171875 26.34375 49.96875 25.679688 49.632812 C 25.710938 50.992188 25.804688 52.25 25.898438 53.367188 C 26.039062 55.09375 26.164062 56.585938 25.992188 57.835938 C 25.648438 60.257812 23.523438 62.085938 21.039062 62.085938 C 18.28125 62.085938 16.046875 59.84375 16.046875 57.085938 C 16.046875 55.734375 16.578125 54.46875 17.539062 53.523438 C 18.132812 52.9375 19.078125 52.945312 19.65625 53.539062 C 20.242188 54.132812 20.234375 55.078125 19.640625 55.65625 C 19.257812 56.039062 19.046875 56.546875 19.046875 57.09375 C 19.046875 58.195312 19.9375 59.09375 21.039062 59.09375 C 22.03125 59.09375 22.882812 58.375 23.015625 57.421875 C 23.140625 56.507812 23.03125 55.164062 22.90625 53.617188 C 22.695312 51.125 22.4375 48.015625 22.9375 44.40625 C 22.945312 44.351562 22.976562 44.296875 22.992188 44.242188 C 23.25 42.859375 24.046875 41.640625 25.28125 40.898438 C 25.992188 40.460938 26.914062 40.6875 27.34375 41.398438 C 27.773438 42.109375 27.546875 43.03125 26.84375 43.460938 C 26.234375 43.828125 25.875 44.46875 25.875 45.171875 C 25.875 46.273438 26.773438 47.171875 27.875 47.171875 C 28.867188 47.171875 29.71875 46.453125 29.84375 45.5 C 29.921875 44.953125 29.976562 44.289062 30.03125 43.539062 C 30.25 40.679688 30.578125 36.359375 32.78125 32.695312 C 32.78125 32.6875 32.789062 32.6875 32.804688 32.679688 C 33.484375 31.390625 34.710938 30.414062 36.203125 30.101562 C 37.015625 29.945312 37.8125 30.460938 37.96875 31.273438 C 38.140625 32.085938 37.617188 32.875 36.804688 33.039062 C 35.882812 33.234375 35.210938 34.054688 35.210938 35 C 35.210938 36.109375 36.101562 37 37.210938 37 C 38.171875 37 39.007812 36.3125 39.179688 35.367188 C 39.492188 34.015625 41.007812 27.71875 42.476562 25.40625 C 43.039062 23.757812 44.429688 22.46875 46.203125 22.101562 C 47.015625 21.945312 47.8125 22.460938 47.96875 23.273438 C 48.140625 24.085938 47.617188 24.875 46.804688 25.039062 C 45.882812 25.234375 45.210938 26.054688 45.210938 27 C 45.210938 28.101562 46.101562 29 47.210938 29 C 48.15625 29 48.976562 28.335938 49.164062 27.40625 C 49.898438 25.109375 51.59375 20.203125 52.875 18.507812 C 53.601562 17.234375 54.867188 16.304688 56.414062 16.0625 Z M 74.765625 44.023438 C 75.148438 44.039062 75.523438 44.203125 75.8125 44.507812 C 76.367188 45.117188 76.328125 46.0625 75.71875 46.625 C 75.296875 47.007812 75.070312 47.53125 75.070312 48.09375 C 75.070312 49.203125 75.96875 50.09375 77.070312 50.09375 C 77.890625 50.09375 79.039062 49.570312 79.039062 48.40625 C 79.039062 48.117188 78.992188 47.828125 78.773438 47.289062 C 78.460938 46.523438 78.828125 45.648438 79.59375 45.335938 C 80.359375 45.023438 81.234375 45.382812 81.554688 46.15625 C 81.890625 46.984375 82.039062 47.664062 82.039062 48.40625 C 82.03125 51.34375 79.507812 53.09375 77.0625 53.09375 C 76.367188 53.09375 75.710938 52.960938 75.117188 52.703125 C 75.171875 53.351562 75.234375 54 75.304688 54.609375 C 75.554688 56.96875 75.75 58.820312 75.460938 60.023438 C 74.828125 62.601562 72.914062 64.085938 70.210938 64.085938 C 69.054688 64.085938 68.070312 63.648438 67.304688 62.921875 C 67.34375 63.203125 67.390625 63.492188 67.460938 63.78125 C 68.226562 67.03125 67.710938 68.9375 66.5 71.3125 C 66.046875 72.210938 65.4375 73.046875 64.6875 73.78125 C 64.390625 74.070312 64.007812 74.210938 63.632812 74.210938 C 63.242188 74.210938 62.851562 74.0625 62.5625 73.757812 C 62.09375 73.28125 62.03125 72.578125 62.335938 72.007812 C 61.546875 71.90625 60.820312 71.632812 60.1875 71.210938 C 60.101562 72 60.015625 72.851562 59.945312 73.773438 C 59.765625 76.1875 57.601562 78.070312 55 78.070312 C 53.34375 78.070312 51.875 77.25 50.96875 76 C 50.554688 77.140625 50.203125 78.421875 49.929688 79.929688 C 49.492188 82.328125 47.421875 84.070312 45 84.070312 C 44.226562 84.070312 43.5 83.882812 42.84375 83.5625 C 42.070312 85.171875 40.6875 85.914062 39.804688 86.070312 C 39.710938 86.09375 39.625 86.101562 39.53125 86.101562 C 38.820312 86.101562 38.195312 85.59375 38.0625 84.875 C 37.914062 84.070312 38.429688 83.296875 39.226562 83.132812 C 39.4375 83.078125 40.367188 82.726562 40.390625 81.007812 C 40.140625 80.414062 40 79.765625 40 79.078125 C 40 77.679688 40.585938 76.34375 41.617188 75.398438 C 42.226562 74.835938 43.171875 74.875 43.742188 75.484375 C 44.296875 76.09375 44.257812 77.046875 43.648438 77.601562 C 43.226562 77.984375 43 78.515625 43 79.078125 C 43 80.179688 43.898438 81.078125 45 81.078125 C 45.96875 81.078125 46.796875 80.367188 46.976562 79.390625 C 47.726562 75.242188 48.9375 72.351562 50.789062 70.28125 C 50.828125 70.234375 50.882812 70.210938 50.929688 70.179688 C 51.132812 69.890625 51.359375 69.632812 51.617188 69.398438 C 52.226562 68.835938 53.171875 68.875 53.742188 69.484375 C 54.296875 70.09375 54.257812 71.046875 53.648438 71.601562 C 53.226562 71.984375 53 72.515625 53 73.078125 C 53 74.179688 53.898438 75.078125 55 75.078125 C 56 75.078125 56.890625 74.375 56.960938 73.546875 C 57.15625 70.890625 57.554688 67.328125 58.289062 65.4375 C 58.304688 65.40625 58.3125 65.398438 58.320312 65.375 C 58.59375 64.632812 59.023438 63.945312 59.625 63.398438 C 60.234375 62.835938 61.179688 62.875 61.742188 63.484375 C 62.304688 64.09375 62.265625 65.046875 61.65625 65.601562 C 61.234375 65.984375 61 66.515625 61 67.078125 C 61 68.179688 61.898438 69.078125 63 69.078125 C 63.429688 69.078125 64.046875 68.984375 64.554688 68.148438 C 64.570312 68.117188 64.59375 68.101562 64.609375 68.078125 C 64.90625 67.039062 64.90625 66.007812 64.539062 64.46875 C 63.601562 60.46875 64.671875 56.84375 67.40625 54.773438 C 67.421875 54.78125 67.421875 54.78125 67.4375 54.789062 C 68 54.367188 68.78125 54.367188 69.328125 54.859375 C 69.9375 55.421875 69.984375 56.367188 69.429688 56.976562 C 68.84375 57.609375 68.539062 59.195312 69.023438 60.28125 C 69.328125 60.992188 69.796875 61.085938 70.21875 61.085938 C 71.53125 61.085938 72.25 60.53125 72.546875 59.3125 C 72.710938 58.617188 72.507812 56.65625 72.320312 54.929688 C 72.070312 52.515625 71.820312 49.867188 72.101562 47.78125 C 72.125 47.453125 72.171875 47.132812 72.257812 46.8125 C 72.273438 46.765625 72.265625 46.710938 72.28125 46.65625 C 72.296875 46.609375 72.328125 46.570312 72.351562 46.523438 C 72.617188 45.726562 73.054688 44.992188 73.6875 44.414062 C 73.992188 44.140625 74.382812 44.007812 74.765625 44.023438 Z M 74.765625 44.023438 "/>
</g>
</svg>
